<?xml version="1.0" standalone="no"?><svg xmlns="http://www.w3.org/2000/svg" viewBox="0 0 1440 320"><path fill="#5e7d99" fill-opacity="1" d="M0,224L11.4,192C22.9,160,46,96,69,112C91.4,128,114,224,137,261.3C160,299,183,277,206,234.7C228.6,192,251,128,274,122.7C297.1,117,320,171,343,197.3C365.7,224,389,224,411,197.3C434.3,171,457,117,480,96C502.9,75,526,85,549,112C571.4,139,594,181,617,170.7C640,160,663,96,686,80C708.6,64,731,96,754,138.7C777.1,181,800,235,823,256C845.7,277,869,267,891,261.3C914.3,256,937,256,960,224C982.9,192,1006,128,1029,85.3C1051.4,43,1074,21,1097,37.3C1120,53,1143,107,1166,112C1188.6,117,1211,75,1234,69.3C1257.1,64,1280,96,1303,106.7C1325.7,117,1349,107,1371,117.3C1394.3,128,1417,160,1429,176L1440,192L1440,0L1428.6,0C1417.1,0,1394,0,1371,0C1348.6,0,1326,0,1303,0C1280,0,1257,0,1234,0C1211.4,0,1189,0,1166,0C1142.9,0,1120,0,1097,0C1074.3,0,1051,0,1029,0C1005.7,0,983,0,960,0C937.1,0,914,0,891,0C868.6,0,846,0,823,0C800,0,777,0,754,0C731.4,0,709,0,686,0C662.9,0,640,0,617,0C594.3,0,571,0,549,0C525.7,0,503,0,480,0C457.1,0,434,0,411,0C388.6,0,366,0,343,0C320,0,297,0,274,0C251.4,0,229,0,206,0C182.9,0,160,0,137,0C114.3,0,91,0,69,0C45.7,0,23,0,11,0L0,0Z"></path></svg>